<svg width="59" height="59" viewBox="0 0 59 59" fill="none" xmlns="http://www.w3.org/2000/svg">
<g clip-path="url(#clip0)">
<path d="M29.3647 0.750407C13.3474 0.736927 0.355776 13.7107 0.342296 29.728C0.328815 45.7453 13.3026 58.7369 29.3199 58.7504C45.335 58.7369 58.3176 45.7655 58.3423 29.7504C58.3423 13.7421 45.3731 0.763888 29.3647 0.750407ZM29.3199 53.9246C15.9691 53.9246 5.14576 43.1012 5.14576 29.7504C5.14576 16.3996 15.9691 5.5763 29.3199 5.5763C42.6661 5.58978 53.4805 16.4042 53.494 29.7504C53.494 43.1012 42.6706 53.9246 29.3199 53.9246Z" fill="url(#paint0_linear)"/>
<path d="M37.1532 28.3362C39.0926 27.2431 40.1408 25.0547 39.7794 22.8594C39.3305 19.4702 35.2903 18.1907 32.1029 17.9214V12.8262H28.9605V17.8765H26.8507V12.8262H23.7082V17.8765H17.3784V21.1312H19.7352C20.7902 21.1312 21.3064 21.4455 21.3064 22.2984V36.2821C21.3064 37.4493 20.7228 37.8085 20.0943 37.8085H17.6927V41.1305H23.798V46.293H26.9628V41.1305H29.0727V46.293H32.1478V41.1305H32.8211C39.2855 41.1305 41.4404 37.9656 41.4404 33.656C41.3887 31.115 39.6267 28.9288 37.1532 28.3362ZM26.8505 21.3332H29.0951C30.6663 21.3332 33.7639 21.6026 33.7639 24.1614C33.8716 25.8314 32.6618 27.2949 31.003 27.5058H26.8505V21.3332ZM30.3296 37.4941V37.4717H26.8505V30.7379H30.8908C31.8336 30.7379 35.3799 31.0522 35.3799 33.5661C35.3799 36.08 33.6966 37.4941 30.3296 37.4941Z" fill="url(#paint1_linear)"/>
</g>
<defs>
<linearGradient id="paint0_linear" x1="32.2423" y1="-8.37924" x2="35.5146" y2="94.3665" gradientUnits="userSpaceOnUse">
<stop stop-color="#FD749B"/>
<stop offset="1" stop-color="#281AC8"/>
</linearGradient>
<linearGradient id="paint1_linear" x1="30.6125" y1="7.55831" x2="33.2361" y2="66.7879" gradientUnits="userSpaceOnUse">
<stop stop-color="#FD749B"/>
<stop offset="1" stop-color="#281AC8"/>
</linearGradient>
<clipPath id="clip0">
<rect width="58" height="58" fill="white" transform="translate(0.342285 0.750488)"/>
</clipPath>
</defs>
</svg>
