<svg width="36" height="36" viewBox="0 0 36 36" fill="none" xmlns="http://www.w3.org/2000/svg">
<path d="M0.188477 12.8351L16.0046 32.4696L8.83057 12.8351H0.188477Z" fill="url(#paint0_linear)"/>
<path d="M10.2402 12.8351L17.8836 33.7543L25.6771 12.8351H10.2402Z" fill="url(#paint1_linear)"/>
<path d="M19.5869 32.9766L35.8108 12.8351H27.0899L19.5869 32.9766Z" fill="url(#paint2_linear)"/>
<path d="M29.6224 2.245H19.3911L26.4063 10.8791L29.6224 2.245Z" fill="url(#paint3_linear)"/>
<path d="M25.2135 11.5113L17.9997 2.63354L10.7866 11.5113H25.2135Z" fill="url(#paint4_linear)"/>
<path d="M16.6091 2.245H6.37061L9.54694 10.9374L16.6091 2.245Z" fill="url(#paint5_linear)"/>
<path d="M5.26786 3.08289L0 11.5112H8.3469L5.26786 3.08289Z" fill="url(#paint6_linear)"/>
<path d="M36.0001 11.5112L30.7269 3.07434L27.583 11.5112H36.0001Z" fill="url(#paint7_linear)"/>
<defs>
<linearGradient id="paint0_linear" x1="8.88736" y1="9.74447" x2="10.2618" y2="44.5075" gradientUnits="userSpaceOnUse">
<stop stop-color="#FD749B"/>
<stop offset="1" stop-color="#281AC8"/>
</linearGradient>
<linearGradient id="paint1_linear" x1="18.7305" y1="9.54225" x2="20.3285" y2="46.5688" gradientUnits="userSpaceOnUse">
<stop stop-color="#FD749B"/>
<stop offset="1" stop-color="#281AC8"/>
</linearGradient>
<linearGradient id="paint2_linear" x1="28.51" y1="9.66466" x2="29.92" y2="45.3253" gradientUnits="userSpaceOnUse">
<stop stop-color="#FD749B"/>
<stop offset="1" stop-color="#281AC8"/>
</linearGradient>
<linearGradient id="paint3_linear" x1="25.0183" y1="0.885916" x2="25.4295" y2="16.1856" gradientUnits="userSpaceOnUse">
<stop stop-color="#FD749B"/>
<stop offset="1" stop-color="#281AC8"/>
</linearGradient>
<linearGradient id="paint4_linear" x1="18.7214" y1="1.23613" x2="19.0298" y2="16.9727" gradientUnits="userSpaceOnUse">
<stop stop-color="#FD749B"/>
<stop offset="1" stop-color="#281AC8"/>
</linearGradient>
<linearGradient id="paint5_linear" x1="12.0018" y1="0.876748" x2="12.4183" y2="16.2795" gradientUnits="userSpaceOnUse">
<stop stop-color="#FD749B"/>
<stop offset="1" stop-color="#281AC8"/>
</linearGradient>
<linearGradient id="paint6_linear" x1="4.59079" y1="1.75621" x2="5.07093" y2="16.6865" gradientUnits="userSpaceOnUse">
<stop stop-color="#FD749B"/>
<stop offset="1" stop-color="#281AC8"/>
</linearGradient>
<linearGradient id="paint7_linear" x1="32.2124" y1="1.74631" x2="32.6895" y2="16.692" gradientUnits="userSpaceOnUse">
<stop stop-color="#FD749B"/>
<stop offset="1" stop-color="#281AC8"/>
</linearGradient>
</defs>
</svg>
