<svg width="36" height="36" viewBox="0 0 36 36" fill="none" xmlns="http://www.w3.org/2000/svg">
<g clip-path="url(#clip0)">
<path d="M17.9976 7.59155C14.4803 7.59155 11.6187 10.4529 11.6187 13.9702C11.6187 17.4878 14.4803 20.3492 17.9976 20.3492C21.5149 20.3492 24.3763 17.4878 24.3763 13.9702C24.3763 10.4529 21.5149 7.59155 17.9976 7.59155Z" fill="url(#paint0_linear)"/>
<path d="M31.2848 18.2875L29.3504 13.9705L31.2848 9.65339L27.1825 7.29765L26.21 2.66802L21.5062 3.17367L17.9983 0L14.4901 3.17367L9.78655 2.6683L8.81399 7.29793L4.71143 9.65339L6.64584 13.9705L4.71143 18.2875L8.81399 20.6433L9.34078 23.1514L4.96164 32.4566L9.53194 32.5164L12.4911 35.9999L16.7955 26.853L17.9983 27.9409L19.2007 26.853L23.5054 35.9999L26.4643 32.5164L31.0346 32.4566L26.6555 23.1514L27.1825 20.6433L31.2848 18.2875ZM17.9983 22.4585C13.3178 22.4585 9.51024 18.6509 9.51024 13.9705C9.51024 9.29002 13.3178 5.48244 17.9983 5.48244C22.6784 5.48244 26.4863 9.29029 26.4863 13.9705C26.4863 18.6509 22.6784 22.4585 17.9983 22.4585V22.4585Z" fill="url(#paint1_linear)"/>
</g>
<defs>
<linearGradient id="paint0_linear" x1="18.6353" y1="5.58341" x2="19.3551" y2="28.1832" gradientUnits="userSpaceOnUse">
<stop stop-color="#FD749B"/>
<stop offset="1" stop-color="#281AC8"/>
</linearGradient>
<linearGradient id="paint1_linear" x1="19.3268" y1="-5.66665" x2="22.076" y2="58.0525" gradientUnits="userSpaceOnUse">
<stop stop-color="#FD749B"/>
<stop offset="1" stop-color="#281AC8"/>
</linearGradient>
<clipPath id="clip0">
<rect width="36" height="36" fill="white"/>
</clipPath>
</defs>
</svg>
