<svg width="36" height="36" viewBox="0 0 36 36" fill="none" xmlns="http://www.w3.org/2000/svg">
<path d="M21.7672 24.713H14.1986C7.97926 24.713 2.91162 29.7807 2.91162 36H33.0871C33.0542 29.8136 27.9866 24.713 21.7672 24.713Z" fill="url(#paint0_linear)"/>
<path d="M19.3321 19.5464C19.9244 19.5464 20.4838 19.7439 20.9116 20.1058H23.6429C24.9921 18.6909 25.8147 16.8152 25.8147 14.7091C25.8147 10.3654 22.2937 6.87732 17.9829 6.87732C13.6721 6.87732 10.1511 10.3654 10.1511 14.7091C10.1511 17.6378 11.7636 20.2046 14.1657 21.5537C14.429 20.402 15.4491 19.5464 16.6338 19.5464H19.3321Z" fill="url(#paint1_linear)"/>
<path d="M6.39978 15.3675C6.4985 16.1901 6.89338 16.947 7.4528 17.5064C7.88059 17.9342 8.44 18.2633 9.06523 18.4607C9.03232 18.3291 9.03232 18.1974 9.03232 18.0987V11.7148C9.03232 11.5832 9.03232 11.4516 9.06523 11.3199C8.44 11.4845 7.91349 11.8135 7.4528 12.2742C7.41989 12.3071 7.35408 12.3729 7.32117 12.4059V12.1426C7.32117 11.5174 7.38698 10.8921 7.4857 10.2998C7.58442 9.67459 7.74896 9.08227 7.97931 8.52285C8.17675 7.93053 8.44 7.37112 8.76907 6.84461C9.06523 6.3181 9.4272 5.79159 9.82208 5.3309C9.85499 5.29799 9.8879 5.23218 9.8879 5.19927C10.1841 5.23218 10.4802 5.13346 10.6777 4.93601C12.685 2.9287 15.3175 1.9415 17.9171 1.9415C20.5168 1.9415 23.1822 2.9287 25.1566 4.93601C25.387 5.16636 25.6831 5.23218 25.9464 5.19927C25.9793 5.23218 25.9793 5.29799 26.0122 5.3309C26.4071 5.79159 26.7691 6.3181 27.0652 6.84461C27.3614 7.37112 27.6246 7.93053 27.855 8.52285C28.0524 9.11517 28.217 9.7075 28.3486 10.3327C28.4473 10.925 28.5131 11.5503 28.5131 12.1755V12.4388C28.4802 12.3729 28.4144 12.34 28.3815 12.3071C27.9537 11.8793 27.3943 11.5503 26.7691 11.3528C26.802 11.4845 26.802 11.6161 26.802 11.7477V18.0987C26.802 18.2303 26.802 18.362 26.7691 18.4607C26.9336 18.4278 27.0981 18.362 27.2627 18.2962V20.3693C27.2627 20.5996 27.2298 20.83 27.1969 20.9945C27.1639 21.159 27.0981 21.2578 27.0323 21.3565C26.9665 21.4223 26.8678 21.4881 26.7691 21.521C26.6374 21.5539 26.5058 21.5868 26.3413 21.5868H26.3084H20.2535C20.0561 21.2578 19.727 21.0274 19.2992 21.0274H16.6009C16.0086 21.0274 15.5479 21.521 15.5479 22.0804C15.5808 22.6728 16.0415 23.1335 16.6338 23.1335H19.3321C19.727 23.1335 20.089 22.9031 20.2864 22.574H26.4071H26.6374C26.8678 22.574 27.0652 22.5082 27.2627 22.4424C27.5259 22.3437 27.7234 22.2121 27.9208 22.0146C28.0853 21.8172 28.217 21.5868 28.3157 21.2907C28.3815 21.0274 28.4473 20.6984 28.4473 20.3364V17.7038V17.6051C28.4802 17.5722 28.5131 17.5393 28.546 17.5064C29.1054 16.947 29.5003 16.1901 29.599 15.3675C29.632 15.3346 29.6649 15.3346 29.6649 15.3016C29.7636 15.2029 29.8294 15.0384 29.8294 14.9068V12.1755C29.8294 11.4845 29.7636 10.7934 29.6649 10.1353C29.4674 9.44424 29.3029 8.78611 29.0725 8.12797C28.8422 7.46984 28.546 6.84461 28.1841 6.25229C27.855 5.65996 27.4601 5.10055 26.9994 4.57404C26.9665 4.50823 26.9007 4.47532 26.8349 4.44241C26.9007 4.14625 26.802 3.78428 26.5716 3.55393C24.2023 1.18464 21.1091 0 17.983 0C14.8568 0 11.7636 1.18464 9.36139 3.55393C9.13104 3.78428 9.03232 4.14625 9.09814 4.44241C9.03232 4.47532 8.99941 4.50823 8.9336 4.57404C8.47291 5.10055 8.07803 5.65996 7.74896 6.25229C7.41989 6.84461 7.12373 7.46984 6.86048 8.12797C6.63013 8.78611 6.43269 9.44424 6.33397 10.1353C6.20234 10.7934 6.16943 11.4845 6.16943 12.1755V14.9068C6.16943 15.0713 6.23525 15.2029 6.33397 15.3016C6.36687 15.3346 6.39978 15.3346 6.39978 15.3675Z" fill="url(#paint2_linear)"/>
<defs>
<linearGradient id="paint0_linear" x1="19.5082" y1="22.9364" x2="19.7465" y2="42.9485" gradientUnits="userSpaceOnUse">
<stop stop-color="#FD749B"/>
<stop offset="1" stop-color="#281AC8"/>
</linearGradient>
<linearGradient id="paint1_linear" x1="18.7661" y1="4.56714" x2="19.542" y2="30.5693" gradientUnits="userSpaceOnUse">
<stop stop-color="#FD749B"/>
<stop offset="1" stop-color="#281AC8"/>
</linearGradient>
<linearGradient id="paint2_linear" x1="19.1824" y1="-3.64138" x2="20.4586" y2="37.3409" gradientUnits="userSpaceOnUse">
<stop stop-color="#FD749B"/>
<stop offset="1" stop-color="#281AC8"/>
</linearGradient>
</defs>
</svg>
