<svg width="36" height="29" viewBox="0 0 36 29" fill="none" xmlns="http://www.w3.org/2000/svg">
<path d="M23.1109 27.1981H31.1484C32.8796 27.1981 34.2398 25.6316 34.2398 23.8042C34.2398 21.9767 32.8796 20.4103 31.1484 20.4103C30.5302 20.4103 29.9119 20.4103 29.2936 20.4103C31.7667 14.7973 30.5302 2.39648 19.4013 2.39648C11.982 2.39648 8.27234 6.9652 8.27234 16.2332H7.0358C4.3154 16.2332 2.08961 18.7133 2.08961 21.7156C2.08961 24.7179 4.3154 27.1981 7.0358 27.1981H13.2185H23.1109Z" stroke="url(#paint0_linear)" stroke-width="3" stroke-linecap="round" stroke-linejoin="round"/>
<path d="M20.085 13.7085C19.9153 14.0413 19.6291 14.2925 19.272 14.4201L17.4039 15.0442L16.5071 12.3598L18.3452 11.7458C18.716 11.6219 19.1082 11.6477 19.4529 11.8159L19.4531 11.816C19.7976 11.9839 20.0498 12.2718 20.169 12.6286C20.2882 12.9854 20.2597 13.3667 20.0852 13.7081L20.085 13.7085ZM18.8716 10.1894L18.7485 9.82071L18.7484 9.82063C18.6166 9.42613 18.1909 9.22763 17.809 9.35523C17.4606 9.47161 17.2448 9.82764 17.3113 10.19C17.1466 9.86041 16.7602 9.70561 16.4118 9.82198C16.0308 9.94928 15.8084 10.3633 15.9405 10.7588L16.0099 10.9665L15.8908 11.0063L15.8905 11.0056L15.4163 11.164L14.408 11.5009C14.0264 11.6284 13.8047 12.0428 13.9368 12.4381C14.0688 12.8334 14.4951 13.0312 14.8767 12.9038L15.0961 12.8305L17.5104 20.0572L17.291 20.1305C16.9095 20.258 16.6877 20.6723 16.8198 21.0677C16.9518 21.463 17.3781 21.6609 17.7597 21.5334L19.3613 20.9983L19.4304 21.205C19.5625 21.6004 19.9888 21.7982 20.3703 21.6707C20.719 21.5542 20.9343 21.198 20.8678 20.8357C21.0325 21.1652 21.4187 21.3205 21.7674 21.204C22.1499 21.0762 22.3701 20.6614 22.2383 20.2669L22.1659 20.0504C23.6685 19.4107 24.4695 17.7292 23.9461 16.1624C23.5728 15.0452 22.6257 14.2864 21.5388 14.085C21.7664 13.4866 21.7982 12.8108 21.5799 12.1573C21.1805 10.9619 20.07 10.2107 18.8716 10.1894ZM21.4529 18.7401L18.9212 19.5859L17.8727 16.4474L19.7108 15.8334C19.7262 15.8282 19.7408 15.8229 19.7507 15.8193L20.4042 15.601C20.8368 15.4564 21.2949 15.4867 21.6978 15.6833L21.698 15.6834C22.1007 15.8797 22.3959 16.2164 22.5353 16.6338C22.6748 17.0514 22.6413 17.4977 22.4374 17.8971L22.4373 17.8972C22.2337 18.2964 21.8859 18.5955 21.4529 18.7401Z" fill="url(#paint1_linear)" stroke="url(#paint2_linear)"/>
<defs>
<linearGradient id="paint0_linear" x1="19.7722" y1="-1.50747" x2="20.8521" y2="42.446" gradientUnits="userSpaceOnUse">
<stop stop-color="#FD749B"/>
<stop offset="1" stop-color="#281AC8"/>
</linearGradient>
<linearGradient id="paint1_linear" x1="17.2736" y1="8.15396" x2="24.6799" y2="27.1125" gradientUnits="userSpaceOnUse">
<stop stop-color="#FD749B"/>
<stop offset="1" stop-color="#281AC8"/>
</linearGradient>
<linearGradient id="paint2_linear" x1="17.2736" y1="8.15396" x2="24.6799" y2="27.1125" gradientUnits="userSpaceOnUse">
<stop stop-color="#FD749B"/>
<stop offset="1" stop-color="#281AC8"/>
</linearGradient>
</defs>
</svg>
